<svg width="48" height="48" viewBox="0 0 48 48" fill="none" xmlns="http://www.w3.org/2000/svg">
<rect width="48" height="48" rx="8" fill="#E8EDF2"/>
<g clip-path="url(#clip0_0_18)">
<g filter="url(#filter0_d_0_18)">
<path fill-rule="evenodd" clip-rule="evenodd" d="M27 15.75C27 14.0931 25.6569 12.75 24 12.75C22.3431 12.75 21 14.0931 21 15.75C21 17.4069 22.3431 18.75 24 18.75C25.6569 18.75 27 17.4069 27 15.75ZM24 17.25C23.1716 17.25 22.5 16.5784 22.5 15.75C22.5 14.9216 23.1716 14.25 24 14.25C24.8284 14.25 25.5 14.9216 25.5 15.75C25.5 16.5784 24.8284 17.25 24 17.25ZM32.4694 24.5672L28.2347 19.7653C27.6651 19.1197 26.8456 18.7499 25.9847 18.75H22.0153C21.1544 18.7499 20.3349 19.1197 19.7653 19.7653L15.5306 24.5672C14.8151 25.299 14.8186 26.4693 15.5384 27.1968C16.2583 27.9243 17.4285 27.9402 18.1678 27.2325L19.6959 26.0063L18.1453 31.9013C17.7176 32.8449 18.1359 33.9565 19.0795 34.3842C20.0232 34.8119 21.1348 34.3936 21.5625 33.45L24 29.2434L26.4375 33.45C26.8836 34.3605 27.9727 34.7515 28.896 34.3326C29.8193 33.9136 30.2424 32.8366 29.8509 31.9013L28.3041 26.0063L29.8322 27.2325C30.5715 27.9402 31.7417 27.9243 32.4616 27.1968C33.1814 26.4693 33.1849 25.299 32.4694 24.5672ZM31.3903 26.1394C31.32 26.2098 31.2245 26.2494 31.125 26.2494C31.0255 26.2494 30.93 26.2098 30.8597 26.1394C30.84 26.1206 30.8203 26.1019 30.7987 26.085L27.4688 23.415C27.2167 23.2138 26.8643 23.1963 26.5935 23.3714C26.3228 23.5465 26.1943 23.8751 26.2744 24.1875L28.4194 32.3438C28.4304 32.3872 28.4455 32.4296 28.4644 32.4703C28.5233 32.5921 28.512 32.7361 28.435 32.8473C28.3579 32.9584 28.227 33.0195 28.0923 33.007C27.9576 32.9946 27.8401 32.9106 27.7847 32.7872C27.7755 32.7669 27.7652 32.7472 27.7537 32.7281L24.6488 27.375C24.5146 27.1437 24.2674 27.0013 24 27.0013C23.7326 27.0013 23.4854 27.1437 23.3512 27.375L20.25 32.7234C20.2386 32.7425 20.2282 32.7622 20.2191 32.7825C20.177 32.8727 20.1008 32.9426 20.0072 32.9766C19.8646 33.0288 19.7045 32.9899 19.6018 32.878C19.4991 32.766 19.4741 32.6032 19.5384 32.4656C19.5573 32.4249 19.5724 32.3826 19.5834 32.3391L21.7256 24.1875C21.8057 23.8751 21.6772 23.5465 21.4065 23.3714C21.1357 23.1963 20.7833 23.2138 20.5312 23.415L17.2013 26.085C17.1797 26.1019 17.16 26.1206 17.1403 26.1394C17.0465 26.2382 16.9065 26.2785 16.7746 26.2444C16.6426 26.2104 16.5395 26.1075 16.5053 25.9756C16.471 25.8437 16.511 25.7036 16.6097 25.6097C16.6209 25.5984 16.6312 25.5872 16.6416 25.575L20.8903 20.7572C21.1752 20.4346 21.5849 20.2498 22.0153 20.25H25.9847C26.4151 20.2498 26.8248 20.4346 27.1097 20.7572L31.3584 25.575C31.3687 25.5872 31.3791 25.5984 31.3903 25.6097C31.5363 25.7561 31.5363 25.993 31.3903 26.1394Z" fill="#0D141C"/>
</g>
</g>
<defs>
<filter id="filter0_d_0_18" x="10.9963" y="12.75" width="26.0074" height="29.802" filterUnits="userSpaceOnUse" color-interpolation-filters="sRGB">
<feFlood flood-opacity="0" result="BackgroundImageFix"/>
<feColorMatrix in="SourceAlpha" type="matrix" values="0 0 0 0 0 0 0 0 0 0 0 0 0 0 0 0 0 0 127 0" result="hardAlpha"/>
<feOffset dy="4"/>
<feGaussianBlur stdDeviation="2"/>
<feComposite in2="hardAlpha" operator="out"/>
<feColorMatrix type="matrix" values="0 0 0 0 0 0 0 0 0 0 0 0 0 0 0 0 0 0 0.25 0"/>
<feBlend mode="normal" in2="BackgroundImageFix" result="effect1_dropShadow_0_18"/>
<feBlend mode="normal" in="SourceGraphic" in2="effect1_dropShadow_0_18" result="shape"/>
</filter>
<clipPath id="clip0_0_18">
<rect width="24" height="24" fill="white" transform="translate(12 12)"/>
</clipPath>
</defs>
</svg>
