<svg width="48" height="48" viewBox="0 0 48 48" fill="none" xmlns="http://www.w3.org/2000/svg">
<rect width="48" height="48" rx="8" fill="#E8EDF2"/>
<g clip-path="url(#clip0_0_50)">
<path fill-rule="evenodd" clip-rule="evenodd" d="M32.25 18.75H17.25C16.8358 18.75 16.5 18.4142 16.5 18C16.5 17.5858 16.8358 17.25 17.25 17.25H30C30.4142 17.25 30.75 16.9142 30.75 16.5C30.75 16.0858 30.4142 15.75 30 15.75H17.25C16.0074 15.75 15 16.7574 15 18V30C15 31.2426 16.0074 32.25 17.25 32.25H32.25C33.0784 32.25 33.75 31.5784 33.75 30.75V20.25C33.75 19.4216 33.0784 18.75 32.25 18.75ZM32.25 30.75H17.25C16.8358 30.75 16.5 30.4142 16.5 30V20.1216C16.7408 20.2069 16.9945 20.2504 17.25 20.25H32.25V30.75ZM27.75 25.125C27.75 24.5037 28.2537 24 28.875 24C29.4963 24 30 24.5037 30 25.125C30 25.7463 29.4963 26.25 28.875 26.25C28.2537 26.25 27.75 25.7463 27.75 25.125Z" fill="#0D141C"/>
</g>
<defs>
<clipPath id="clip0_0_50">
<rect width="24" height="24" fill="white" transform="translate(12 12)"/>
</clipPath>
</defs>
</svg>
