<svg width="48" height="48" viewBox="0 0 48 48" fill="none" xmlns="http://www.w3.org/2000/svg">
<rect width="48" height="48" rx="8" fill="#E8EDF2"/>
<g clip-path="url(#clip0_0_82)">
<path fill-rule="evenodd" clip-rule="evenodd" d="M24 14.25C18.6152 14.25 14.25 18.6152 14.25 24C14.25 29.3848 18.6152 33.75 24 33.75C29.3848 33.75 33.75 29.3848 33.75 24C33.7443 18.6176 29.3824 14.2557 24 14.25ZM24 32.25C19.4437 32.25 15.75 28.5563 15.75 24C15.75 19.4437 19.4437 15.75 24 15.75C28.5563 15.75 32.25 19.4437 32.25 24C32.2448 28.5542 28.5542 32.2448 24 32.25ZM30 24C30 24.4142 29.6642 24.75 29.25 24.75H24C23.5858 24.75 23.25 24.4142 23.25 24V18.75C23.25 18.3358 23.5858 18 24 18C24.4142 18 24.75 18.3358 24.75 18.75V23.25H29.25C29.6642 23.25 30 23.5858 30 24Z" fill="#0D141C"/>
</g>
<defs>
<clipPath id="clip0_0_82">
<rect width="24" height="24" fill="white" transform="translate(12 12)"/>
</clipPath>
</defs>
</svg>
