<svg width="48" height="48" viewBox="0 0 48 48" fill="none" xmlns="http://www.w3.org/2000/svg">
<rect width="48" height="48" rx="8" fill="#E8EDF2"/>
<g clip-path="url(#clip0_0_34)">
<path fill-rule="evenodd" clip-rule="evenodd" d="M32.25 18.75H28.9613C28.9978 18.7191 29.0353 18.6891 29.0709 18.6562C29.6465 18.1449 29.9832 17.4169 30 16.6472C30.0249 15.8053 29.7014 14.9904 29.106 14.3947C28.5105 13.7991 27.6957 13.4754 26.8538 13.5C26.0837 13.5166 25.3553 13.8532 24.8438 14.4291C24.4936 14.8349 24.2089 15.2929 24 15.7866C23.7911 15.2929 23.5064 14.8349 23.1562 14.4291C22.6447 13.8532 21.9163 13.5166 21.1462 13.5C20.3043 13.4754 19.4895 13.7991 18.894 14.3947C18.2986 14.9904 17.9751 15.8053 18 16.6472C18.0168 17.4169 18.3535 18.1449 18.9291 18.6562C18.9647 18.6872 19.0022 18.7172 19.0388 18.75H15.75C14.9216 18.75 14.25 19.4216 14.25 20.25V23.25C14.25 24.0784 14.9216 24.75 15.75 24.75V30.75C15.75 31.5784 16.4216 32.25 17.25 32.25H30.75C31.5784 32.25 32.25 31.5784 32.25 30.75V24.75C33.0784 24.75 33.75 24.0784 33.75 23.25V20.25C33.75 19.4216 33.0784 18.75 32.25 18.75ZM25.9688 15.4228C26.2088 15.1577 26.5486 15.0048 26.9062 15.0009H26.9522C27.3711 15.0036 27.7712 15.1747 28.0624 15.4758C28.3536 15.7769 28.5113 16.1825 28.5 16.6013C28.4961 16.9589 28.3432 17.2987 28.0781 17.5388C27.1884 18.3263 25.7119 18.6038 24.7969 18.7013C24.9094 17.7084 25.2188 16.2656 25.9688 15.4228ZM19.9603 15.4566C20.2509 15.166 20.6444 15.0019 21.0553 15H21.1012C21.4589 15.0039 21.7987 15.1568 22.0387 15.4219C22.8253 16.3106 23.1028 17.7844 23.2003 18.6956C22.2891 18.6019 20.8153 18.3206 19.9266 17.5341C19.6615 17.294 19.5085 16.9542 19.5047 16.5966C19.4929 16.1707 19.6563 15.7587 19.9566 15.4566H19.9603ZM15.75 20.25H23.25V23.25H15.75V20.25ZM17.25 24.75H23.25V30.75H17.25V24.75ZM30.75 30.75H24.75V24.75H30.75V30.75ZM32.25 23.25H24.75V20.25H32.25V23.25Z" fill="#0D141C"/>
</g>
<defs>
<clipPath id="clip0_0_34">
<rect width="24" height="24" fill="white" transform="translate(12 12)"/>
</clipPath>
</defs>
</svg>
